<svg width="55" height="51" viewBox="0 0 55 51" fill="none" xmlns="http://www.w3.org/2000/svg">
<path d="M40 16.5966C40 25.1633 29.3108 34.9704 27.3179 36.7245C27.1351 36.8853 26.8649 36.8853 26.6821 36.7245C24.6892 34.9704 14 25.1633 14 16.5966C14 13.2558 15.3696 10.0518 17.8076 7.68945C20.2456 5.32714 23.5522 4 27 4C30.4478 4 33.7544 5.32714 36.1924 7.68945C38.6304 10.0518 40 13.2558 40 16.5966Z" fill="#074634" stroke="#074634" stroke-miterlimit="10"/>
<path d="M3.59635 46.6933C3.91191 46.6933 4.14302 46.6044 4.28969 46.4267C4.43635 46.2489 4.50969 46.0378 4.50969 45.7933V45.3267C4.50969 45.0378 4.41635 44.8333 4.22969 44.7133C4.04302 44.5889 3.83191 44.5267 3.59635 44.5267H3.07635V46.6933H3.59635ZM4.41635 42.1867C4.41635 41.92 4.34302 41.7356 4.19635 41.6333C4.04969 41.5267 3.83858 41.4733 3.56302 41.4733H3.07635V43.4H3.61635C3.87413 43.4 4.07191 43.3 4.20969 43.1C4.34747 42.8956 4.41635 42.6467 4.41635 42.3533V42.1867ZM4.04969 48.06C3.70302 48.06 3.25413 48.0511 2.70302 48.0333C2.15191 48.0156 1.75635 48.0044 1.51635 48H0.876354V40.1867H2.02969C2.30969 40.1867 2.62969 40.1778 2.98969 40.16C3.34969 40.1378 3.60969 40.1267 3.76969 40.1267C4.28969 40.1267 4.72747 40.1689 5.08302 40.2533C5.44302 40.3378 5.72524 40.4644 5.92969 40.6333C6.13413 40.8022 6.27858 40.9978 6.36302 41.22C6.45191 41.4422 6.49635 41.7067 6.49635 42.0133C6.49635 42.4844 6.38747 42.8889 6.16969 43.2267C5.95191 43.5644 5.63635 43.7756 5.22302 43.86C6.27191 43.9533 6.79635 44.5689 6.79635 45.7067C6.79635 46.0489 6.74524 46.36 6.64302 46.64C6.5408 46.9156 6.38302 47.1622 6.16969 47.38C5.9608 47.5933 5.67635 47.76 5.31635 47.88C4.95635 48 4.53413 48.06 4.04969 48.06ZM9.64599 48H7.49266V43.6867L7.09266 43.44V42.6867L8.52599 42.3333H9.06599L9.25932 43.92C9.44155 42.8311 10.026 42.2867 11.0127 42.2867C11.1238 42.2867 11.2393 42.3067 11.3593 42.3467L11.1327 44.72C11.0393 44.6356 10.8349 44.5933 10.5193 44.5933C10.066 44.5933 9.77488 44.7133 9.64599 44.9533V48ZM15.1472 47.1133C15.1205 47.1756 15.065 47.2578 14.9805 47.36C14.9005 47.4622 14.7939 47.5756 14.6605 47.7C14.5272 47.82 14.3627 47.9222 14.1672 48.0067C13.9716 48.0956 13.7739 48.14 13.5739 48.14C12.9472 48.14 12.4983 47.9533 12.2272 47.58C11.9605 47.2067 11.8272 46.5844 11.8272 45.7133V43.34L11.5939 43.1V42.3333H14.0139V46.1333C14.0094 46.3333 14.0427 46.4822 14.1139 46.58C14.185 46.6733 14.3139 46.72 14.5005 46.72C14.5272 46.72 14.5516 46.72 14.5739 46.72C14.5961 46.7156 14.6183 46.7111 14.6405 46.7067C14.6627 46.6978 14.6805 46.6911 14.6939 46.6867C14.7116 46.6822 14.7316 46.6756 14.7539 46.6667C14.7761 46.6533 14.7939 46.6422 14.8072 46.6333C14.8205 46.6244 14.8383 46.6133 14.8605 46.6C14.8827 46.5822 14.8983 46.5689 14.9072 46.56C14.9205 46.5511 14.9383 46.5378 14.9605 46.52C14.9872 46.4978 15.0072 46.4822 15.0205 46.4733V43.34L14.6605 43.1V42.3333H17.2005V48H15.3539L15.1472 47.1133ZM21.3643 48L20.331 45.2733L21.4243 42.3333H23.9243L22.1777 44.9533L23.9643 48H21.3643ZM18.0243 48V40.46L17.6243 40.22V39.6L19.7643 39.2667H20.1977V48H18.0243ZM25.7714 48.14C25.1714 48.14 24.7514 47.96 24.5114 47.6C24.2759 47.24 24.1581 46.6311 24.1581 45.7733V43.5067H23.6981V42.58L24.4847 42.3333L25.1647 40.78H26.3381V42.3333H27.4314V43.5067H26.3181V45.9867C26.3181 46.3422 26.3692 46.5778 26.4714 46.6933C26.5736 46.8089 26.7314 46.8667 26.9447 46.8667C27.0381 46.8667 27.1225 46.8556 27.1981 46.8333C27.2736 46.8111 27.3359 46.78 27.3847 46.74V47.6467C27.3181 47.7133 27.2314 47.78 27.1247 47.8467C27.0181 47.9089 26.8403 47.9733 26.5914 48.04C26.347 48.1067 26.0736 48.14 25.7714 48.14ZM30.5867 50.3533C30.24 50.3533 29.8489 50.2733 29.4133 50.1133C28.9778 49.9578 28.6956 49.8089 28.5667 49.6667L28.9867 48.7533C29.0978 48.8378 29.2778 48.9156 29.5267 48.9867C29.7756 49.0578 29.9889 49.0933 30.1667 49.0933C30.3444 49.0933 30.4978 49.0689 30.6267 49.02C30.76 48.9756 30.8622 48.9178 30.9333 48.8467C31.0044 48.78 31.0622 48.6956 31.1067 48.5933C31.1511 48.4956 31.1778 48.4067 31.1867 48.3267C31.2 48.2467 31.2089 48.1578 31.2133 48.06V47.4933C30.8356 47.8844 30.3756 48.08 29.8333 48.08C29.1 48.08 28.5622 47.8289 28.22 47.3267C27.8778 46.8244 27.7067 46.1267 27.7067 45.2333C27.7067 44.8156 27.7533 44.4311 27.8467 44.08C27.94 43.7244 28.0756 43.4133 28.2533 43.1467C28.4356 42.8756 28.6711 42.6644 28.96 42.5133C29.2489 42.3578 29.5756 42.28 29.94 42.28C30.4911 42.28 30.9689 42.4022 31.3733 42.6467L31.4867 42.3333H32.5067L33.76 42.3933V43.02L33.36 43.3V47.7533C33.36 49.4867 32.4356 50.3533 30.5867 50.3533ZM30.8 46.8667C30.9333 46.8667 31.0711 46.8289 31.2133 46.7533V43.24C31.1067 43.2178 31.0089 43.2067 30.92 43.2067C30.3289 43.2111 30.0311 43.6667 30.0267 44.5733V45.6067C30.0267 45.8911 30.0644 46.1356 30.14 46.34C30.2733 46.6911 30.4933 46.8667 30.8 46.8667ZM34.2162 48V40.46L33.8162 40.22V39.6L35.9562 39.2667H36.3895V48H34.2162ZM40.2711 44.5533C40.2711 43.9889 40.2423 43.5889 40.1845 43.3533C40.1267 43.1178 40.02 43 39.8645 43C39.7311 43 39.6223 43.0244 39.5378 43.0733C39.4534 43.1178 39.3911 43.1911 39.3511 43.2933C39.3111 43.3911 39.2845 43.4933 39.2711 43.6C39.2623 43.7022 39.2578 43.8333 39.2578 43.9933V44.5533H40.2711ZM39.7378 48.14C39.24 48.14 38.8067 48.0644 38.4378 47.9133C38.0734 47.7622 37.7845 47.5511 37.5711 47.28C37.3623 47.0089 37.2089 46.7044 37.1111 46.3667C37.0134 46.0244 36.9645 45.6444 36.9645 45.2267C36.9645 44.2311 37.2178 43.4778 37.7245 42.9667C38.2311 42.4556 38.94 42.2 39.8511 42.2C40.7267 42.2 41.3534 42.4067 41.7311 42.82C42.1089 43.2289 42.2978 43.8889 42.2978 44.8V45.54H39.2511V45.6667C39.2511 45.9289 39.2778 46.1444 39.3311 46.3133C39.3889 46.4822 39.4711 46.6067 39.5778 46.6867C39.6845 46.7667 39.7934 46.82 39.9045 46.8467C40.0156 46.8733 40.1511 46.8867 40.3111 46.8867C40.4667 46.8867 40.6334 46.8667 40.8111 46.8267C40.9934 46.7867 41.1756 46.7244 41.3578 46.64C41.5445 46.5556 41.7 46.4556 41.8245 46.34L42.2178 47.0133C42.0534 47.28 41.8111 47.5044 41.4911 47.6867C41.1756 47.8644 40.8711 47.9844 40.5778 48.0467C40.2845 48.1089 40.0045 48.14 39.7378 48.14ZM46.7467 48L46.4867 47.14C46.4511 47.2022 46.4089 47.2644 46.36 47.3267C46.3156 47.3889 46.2422 47.4689 46.14 47.5667C46.0378 47.66 45.9289 47.7422 45.8133 47.8133C45.6978 47.8844 45.5533 47.9467 45.38 48C45.2067 48.0533 45.0244 48.08 44.8333 48.08C44.1 48.08 43.5622 47.8289 43.22 47.3267C42.8778 46.8244 42.7067 46.1267 42.7067 45.2333C42.7067 44.6733 42.7867 44.1756 42.9467 43.74C43.1067 43.3 43.3578 42.9467 43.7 42.68C44.0422 42.4133 44.4556 42.28 44.94 42.28C45.2289 42.28 45.4867 42.3111 45.7133 42.3733C45.94 42.4356 46.1356 42.5111 46.3 42.6V40.58L45.5667 40.3333V39.6L47.9267 39.2667H48.4467V48H46.7467ZM45.8067 46.7733C45.8867 46.7733 45.9689 46.76 46.0533 46.7333C46.1378 46.7022 46.22 46.66 46.3 46.6067V43.2533C46.1622 43.2222 46.0356 43.2067 45.92 43.2067C45.3289 43.2111 45.0311 43.6667 45.0267 44.5733V45.5067C45.0267 45.9244 45.1 46.24 45.2467 46.4533C45.3933 46.6667 45.58 46.7733 45.8067 46.7733ZM52.3415 44.5533C52.3415 43.9889 52.3126 43.5889 52.2548 43.3533C52.197 43.1178 52.0903 43 51.9348 43C51.8015 43 51.6926 43.0244 51.6081 43.0733C51.5237 43.1178 51.4615 43.1911 51.4215 43.2933C51.3815 43.3911 51.3548 43.4933 51.3415 43.6C51.3326 43.7022 51.3281 43.8333 51.3281 43.9933V44.5533H52.3415ZM51.8081 48.14C51.3103 48.14 50.877 48.0644 50.5081 47.9133C50.1437 47.7622 49.8548 47.5511 49.6415 47.28C49.4326 47.0089 49.2792 46.7044 49.1815 46.3667C49.0837 46.0244 49.0348 45.6444 49.0348 45.2267C49.0348 44.2311 49.2881 43.4778 49.7948 42.9667C50.3015 42.4556 51.0103 42.2 51.9215 42.2C52.797 42.2 53.4237 42.4067 53.8015 42.82C54.1792 43.2289 54.3681 43.8889 54.3681 44.8V45.54H51.3215V45.6667C51.3215 45.9289 51.3481 46.1444 51.4015 46.3133C51.4592 46.4822 51.5415 46.6067 51.6481 46.6867C51.7548 46.7667 51.8637 46.82 51.9748 46.8467C52.0859 46.8733 52.2215 46.8867 52.3815 46.8867C52.537 46.8867 52.7037 46.8667 52.8815 46.8267C53.0637 46.7867 53.2459 46.7244 53.4281 46.64C53.6148 46.5556 53.7703 46.4556 53.8948 46.34L54.2881 47.0133C54.1237 47.28 53.8815 47.5044 53.5615 47.6867C53.2459 47.8644 52.9415 47.9844 52.6481 48.0467C52.3548 48.1089 52.0748 48.14 51.8081 48.14Z" fill="#074634"/>
<path d="M26.8428 21.04C27.3161 21.04 27.6628 20.9067 27.8828 20.64C28.1028 20.3733 28.2128 20.0567 28.2128 19.69V18.99C28.2128 18.5567 28.0728 18.25 27.7928 18.07C27.5128 17.8833 27.1961 17.79 26.8428 17.79H26.0628V21.04H26.8428ZM28.0728 14.28C28.0728 13.88 27.9628 13.6033 27.7428 13.45C27.5228 13.29 27.2061 13.21 26.7928 13.21H26.0628V16.1H26.8728C27.2594 16.1 27.5561 15.95 27.7628 15.65C27.9694 15.3433 28.0728 14.97 28.0728 14.53V14.28ZM27.5228 23.09C27.0028 23.09 26.3294 23.0767 25.5028 23.05C24.6761 23.0233 24.0828 23.0067 23.7228 23H22.7628V11.28H24.4928C24.9128 11.28 25.3928 11.2667 25.9328 11.24C26.4728 11.2067 26.8628 11.19 27.1028 11.19C27.8828 11.19 28.5394 11.2533 29.0728 11.38C29.6128 11.5067 30.0361 11.6967 30.3428 11.95C30.6494 12.2033 30.8661 12.4967 30.9928 12.83C31.1261 13.1633 31.1928 13.56 31.1928 14.02C31.1928 14.7267 31.0294 15.3333 30.7028 15.84C30.3761 16.3467 29.9028 16.6633 29.2828 16.79C30.8561 16.93 31.6428 17.8533 31.6428 19.56C31.6428 20.0733 31.5661 20.54 31.4128 20.96C31.2594 21.3733 31.0228 21.7433 30.7028 22.07C30.3894 22.39 29.9628 22.64 29.4228 22.82C28.8828 23 28.2494 23.09 27.5228 23.09Z" fill="#F1F7EA"/>
</svg>
