<svg width="349" height="167" viewBox="0 0 349 167" fill="none" xmlns="http://www.w3.org/2000/svg">
<g clip-path="url(#clip0_538_1579)">
<path d="M308.806 166.129L309.995 144.067C309.995 144.067 349 136.001 349 112.753C349 89.5044 285.26 86.6576 278.839 97.3329C278.775 97.4397 278.711 97.5464 278.647 97.6531C270.716 110.995 275.194 128.317 288.691 136.022C293.306 138.657 298.809 140.912 305.239 142.169L304.786 165.606" fill="#D1E7C5"/>
<path d="M272.629 45.6775C284.791 45.6775 294.649 35.844 294.649 23.7138C294.649 11.5835 284.791 1.75 272.629 1.75C260.468 1.75 250.609 11.5835 250.609 23.7138C250.609 35.844 260.468 45.6775 272.629 45.6775Z" fill="#FDD3D3"/>
<path d="M240.143 160.899L215.309 159.32L213.969 47.9323C213.937 45.2287 215.018 42.5813 216.935 40.6693L243.541 14.1312C247.265 10.4167 253.127 10.1482 257.177 13.5084L286.05 37.4657C288.405 39.4201 289.736 42.2938 289.7 45.3497L288.708 129.119L301.257 146.504L301.283 146.541L303.41 164.922L240.143 160.899Z" fill="#FFE0BA"/>
<path d="M244.317 40.0664V34.9013C244.317 33.5379 245.429 32.4287 246.796 32.4287H254.072C255.439 32.4287 256.551 33.5379 256.551 34.9013V40.0664C256.551 41.4298 255.439 42.539 254.072 42.539H246.796C245.429 42.539 244.317 41.4298 244.317 40.0664Z" fill="#F1F7EA"/>
<path d="M228.938 80.1591V61.0488C228.938 59.6854 230.051 58.5762 231.417 58.5762H242.188C243.555 58.5762 244.667 59.6854 244.667 61.0488V80.1591C244.667 81.5225 243.555 82.6317 242.188 82.6317H231.417C230.051 82.6317 228.938 81.5225 228.938 80.1591Z" fill="#FFCF99"/>
<path d="M253.285 124.893C251.984 124.847 250.934 123.793 250.895 122.494L250.351 104.023C250.328 103.235 250.67 102.502 251.29 102.012C251.909 101.522 252.703 101.359 253.467 101.561L254.012 101.706C255.095 101.995 255.852 102.977 255.852 104.095V122.422C255.852 123.098 255.583 123.73 255.095 124.201C254.628 124.65 254.021 124.894 253.376 124.894C253.346 124.894 253.316 124.894 253.285 124.893Z" fill="#FFCF99"/>
<path d="M220.258 124.201C219.77 123.73 219.501 123.098 219.501 122.422V104.095C219.501 102.977 220.258 101.995 221.341 101.706L221.886 101.561C222.651 101.359 223.444 101.522 224.064 102.012C224.683 102.502 225.026 103.235 225.003 104.023L224.458 122.494C224.419 123.793 223.37 124.847 222.068 124.893C222.037 124.894 222.007 124.894 221.977 124.894C221.332 124.894 220.725 124.65 220.258 124.201Z" fill="#FFCF99"/>
<path d="M230.686 122.344V103.178C230.686 101.825 231.748 100.739 233.104 100.706L242.894 100.468C244.251 100.449 245.392 101.512 245.432 102.868L245.996 122.272C246.015 122.946 245.767 123.583 245.296 124.067C244.825 124.55 244.194 124.816 243.518 124.816H233.164C231.798 124.816 230.686 123.707 230.686 122.344Z" fill="#FFCF99"/>
<path d="M288.549 135.44L296.222 149.046L297.103 164.347L303.213 164.734L301.116 146.605L288.533 129.174C287.447 131.124 287.453 133.496 288.549 135.44Z" fill="#D1E7C5"/>
<path d="M296.857 159.968L271.954 160.308L271.959 160.656L296.862 160.317L296.857 159.968Z" fill="#FFCF99"/>
<path d="M295.346 156.891L271.734 157.075L271.737 157.424L295.349 157.24L295.346 156.891Z" fill="#FFCF99"/>
<path d="M294.121 153.747L271.535 154.188L271.542 154.536L294.128 154.096L294.121 153.747Z" fill="#FFCF99"/>
<path d="M293.42 150.621L271.73 151.339L271.742 151.687L293.432 150.969L293.42 150.621Z" fill="#FFCF99"/>
<path d="M292.372 147.836L271.532 148.566L271.545 148.915L292.384 148.184L292.372 147.836Z" fill="#FFCF99"/>
<path d="M290.979 145.386H270.682V145.734H290.979V145.386Z" fill="#FFCF99"/>
<path d="M289.928 142.939L270.202 143.17L270.206 143.519L289.932 143.288L289.928 142.939Z" fill="#FFCF99"/>
<path d="M288.876 140.501L269.762 141.134L269.773 141.482L288.887 140.849L288.876 140.501Z" fill="#FFCF99"/>
<path d="M288.18 138.073L269.306 138.404L269.312 138.753L288.186 138.422L288.18 138.073Z" fill="#FFCF99"/>
<path d="M286.779 135.658L268.706 136.222L268.717 136.57L286.79 136.007L286.779 135.658Z" fill="#FFCF99"/>
<path d="M286.084 133.533L268.171 133.707L268.174 134.056L286.087 133.881L286.084 133.533Z" fill="#FFCF99"/>
<path d="M266.861 126.353V102.71C266.861 101.347 267.973 100.237 269.34 100.237H280.81C282.177 100.237 283.289 101.347 283.289 102.71V126.353C283.289 127.716 282.177 128.825 280.81 128.825H269.34C267.973 128.825 266.861 127.716 266.861 126.353Z" fill="#F1F7EA"/>
<path d="M240.143 160.899L219.839 159.609L219.676 159.598V143.925C219.676 141.943 221.293 140.33 223.28 140.33H243.335C245.322 140.33 246.939 141.943 246.939 143.925V160.899H246.764L240.143 160.899Z" fill="#D1E7C5"/>
<path d="M268.26 83.4718V65.4072C268.26 64.0438 269.372 62.9346 270.739 62.9346H274.519C275.886 62.9346 276.998 64.0438 276.998 65.4072V83.4718C276.998 84.835 275.886 85.9442 274.519 85.9442H270.739C269.372 85.9442 268.26 84.835 268.26 83.4718Z" fill="#FFCF99"/>
<path d="M272.105 162.643L271.056 147.303L267.91 132.661L267.036 128.652C265.241 127.434 262.823 128.788 262.931 130.952L263.017 132.661L266.163 147.303L267.211 162.643" fill="#D1E7C5"/>
<path d="M153.112 155.321L128.278 153.742L126.938 42.3543C126.906 39.6507 127.986 37.0033 129.903 35.0912L156.51 8.55323C160.234 4.83813 166.096 4.57036 170.145 7.93036L199.019 31.8877C201.374 33.8421 202.705 36.7158 202.668 39.7717L201.676 123.541L214.226 140.926L214.252 140.963L216.379 159.344L153.112 155.321Z" fill="#FFE0BA"/>
<path d="M157.286 34.4883V29.3232C157.286 27.9598 158.398 26.8506 159.765 26.8506H167.041C168.408 26.8506 169.519 27.9598 169.519 29.3232V34.4883C169.519 35.8517 168.408 36.9609 167.041 36.9609H159.765C158.398 36.9609 157.286 35.8517 157.286 34.4883Z" fill="#F1F7EA"/>
<path d="M141.907 74.581V55.4706C141.907 54.1073 143.019 52.998 144.386 52.998H155.157C156.524 52.998 157.636 54.1073 157.636 55.4706V74.581C157.636 75.9444 156.524 77.0536 155.157 77.0536H144.386C143.019 77.0536 141.907 75.9444 141.907 74.581Z" fill="#FFCF99"/>
<path d="M164.474 96.7074C163.942 97.1278 163.648 97.7577 163.668 98.4349L164.212 116.906C164.245 118.022 165.147 118.926 166.266 118.966C166.853 118.989 167.4 118.775 167.82 118.372C168.239 117.968 168.47 117.425 168.47 116.844V98.5173C168.47 97.5565 167.82 96.7128 166.889 96.4653L166.345 96.3203C166.16 96.2712 165.974 96.2471 165.789 96.2471C165.317 96.2471 164.857 96.405 164.474 96.7074Z" fill="#FFCF99"/>
<path d="M133.227 118.622C132.739 118.152 132.47 117.52 132.47 116.844V98.5172C132.47 97.3988 133.226 96.4166 134.31 96.1282L134.855 95.9832C135.618 95.7809 136.412 95.9444 137.032 96.4339C137.653 96.9239 137.995 97.6569 137.971 98.445L137.427 116.916C137.388 118.215 136.339 119.269 135.037 119.315C135.007 119.316 134.976 119.316 134.946 119.316C134.301 119.316 133.694 119.071 133.227 118.622Z" fill="#FFCF99"/>
<path d="M143.654 116.765V97.5994C143.654 96.2464 144.717 95.1607 146.073 95.1273L155.862 94.8894C155.883 94.889 155.903 94.8887 155.924 94.8887C157.257 94.8887 158.362 95.9533 158.401 97.2896L158.965 116.693C158.984 117.367 158.736 118.005 158.265 118.488C157.794 118.971 157.163 119.238 156.487 119.238H146.133C144.766 119.238 143.654 118.128 143.654 116.765Z" fill="#FFCF99"/>
<path d="M201.517 129.862L209.19 143.468L210.071 158.769L216.181 159.156L214.083 141.027L201.501 123.596C200.415 125.545 200.421 127.918 201.517 129.862Z" fill="#D1E7C5"/>
<path d="M209.826 154.39L184.923 154.729L184.928 155.078L209.831 154.739L209.826 154.39Z" fill="#FFCF99"/>
<path d="M208.315 151.313L184.703 151.497L184.706 151.846L208.318 151.662L208.315 151.313Z" fill="#FFCF99"/>
<path d="M207.09 148.169L184.504 148.609L184.511 148.958L207.097 148.518L207.09 148.169Z" fill="#FFCF99"/>
<path d="M206.388 145.042L184.698 145.761L184.71 146.109L206.4 145.391L206.388 145.042Z" fill="#FFCF99"/>
<path d="M205.339 142.258L184.5 142.988L184.512 143.337L205.352 142.606L205.339 142.258Z" fill="#FFCF99"/>
<path d="M203.948 139.808H183.65V140.156H203.948V139.808Z" fill="#FFCF99"/>
<path d="M202.897 137.361L183.171 137.592L183.175 137.94L202.901 137.71L202.897 137.361Z" fill="#FFCF99"/>
<path d="M201.844 134.923L182.73 135.556L182.742 135.904L201.856 135.271L201.844 134.923Z" fill="#FFCF99"/>
<path d="M201.148 132.495L182.273 132.826L182.28 133.175L201.154 132.844L201.148 132.495Z" fill="#FFCF99"/>
<path d="M199.747 130.08L181.675 130.644L181.686 130.992L199.758 130.429L199.747 130.08Z" fill="#FFCF99"/>
<path d="M199.053 127.954L181.14 128.129L181.143 128.478L199.056 128.303L199.053 127.954Z" fill="#FFCF99"/>
<path d="M179.83 120.775V97.1329C179.83 95.7694 180.942 94.6602 182.309 94.6602H193.779C195.146 94.6602 196.258 95.7694 196.258 97.1329V120.775C196.258 122.139 195.146 123.248 193.779 123.248H182.309C180.942 123.248 179.83 122.139 179.83 120.775Z" fill="#F1F7EA"/>
<path d="M153.112 155.321L132.808 154.031L132.645 154.02V138.347C132.645 136.365 134.261 134.752 136.249 134.752H156.304C158.291 134.752 159.907 136.365 159.907 138.347V155.321H159.733L153.112 155.321Z" fill="#D1E7C5"/>
<path d="M181.229 77.8935V59.829C181.229 58.4657 182.341 57.3564 183.707 57.3564H187.488C188.855 57.3564 189.967 58.4657 189.967 59.829V77.8935C189.967 79.2569 188.855 80.3661 187.488 80.3661H183.707C182.341 80.3661 181.229 79.2569 181.229 77.8935Z" fill="#FFCF99"/>
<path d="M185.073 157.065L184.025 141.725L180.879 127.083L180.005 123.073C178.21 121.856 175.792 123.21 175.9 125.374L175.986 127.083L179.131 141.725L180.18 157.065" fill="#D1E7C5"/>
<path d="M66.0797 149.743L41.2454 148.164L39.906 36.776C39.8736 34.0724 40.9542 31.425 42.8711 29.513L69.4773 2.97498C73.2016 -0.739953 79.064 -1.00773 83.1129 2.35211L111.986 26.3094C114.342 28.2638 115.672 31.1375 115.636 34.1935L114.644 117.963L127.194 135.348L127.22 135.385L129.346 153.766L66.0797 149.743Z" fill="#FFE0BA"/>
<path d="M70.2539 28.9102V23.7451C70.2539 22.3817 71.366 21.2725 72.733 21.2725H80.0085C81.3752 21.2725 82.4873 22.3817 82.4873 23.7451V28.9102C82.4873 30.2735 81.3752 31.3828 80.0085 31.3828H72.733C71.366 31.3828 70.2539 30.2735 70.2539 28.9102Z" fill="#F1F7EA"/>
<path d="M54.875 69.0029V49.8925C54.875 48.5291 55.9871 47.4199 57.3541 47.4199H68.1248C69.4915 47.4199 70.6036 48.5291 70.6036 49.8925V69.0029C70.6036 70.3663 69.4915 71.4755 68.1248 71.4755H57.3541C55.9871 71.4755 54.875 70.3663 54.875 69.0029Z" fill="#FFCF99"/>
<path d="M79.222 113.737C77.9202 113.691 76.8702 112.637 76.8317 111.338L76.2872 92.8671C76.264 92.0786 76.6061 91.3455 77.2259 90.856C77.8458 90.3664 78.6394 90.2026 79.4036 90.4052L79.9484 90.5502C81.0318 90.8386 81.7885 91.8208 81.7885 92.9393V111.266C81.7885 111.942 81.5195 112.574 81.0314 113.044C80.5645 113.494 79.9572 113.738 79.3125 113.738C79.2824 113.738 79.2521 113.738 79.222 113.737Z" fill="#FFCF99"/>
<path d="M47.3237 90.718L47.8684 90.5731C49.3584 90.1768 50.8106 91.3239 50.7652 92.8613L50.2206 111.332C50.1849 112.543 49.2129 113.519 47.999 113.562C46.6953 113.608 45.6133 112.566 45.6133 111.265V92.9386C45.6133 91.8974 46.3151 90.9863 47.3237 90.718Z" fill="#FFCF99"/>
<path d="M56.623 111.188V92.0219C56.623 90.6689 57.6853 89.5832 59.0417 89.5498L68.8311 89.3119C70.1951 89.2901 71.33 90.3554 71.3696 91.7121L71.9335 111.116C71.953 111.79 71.7045 112.427 71.2334 112.911C70.7627 113.394 70.1313 113.66 69.4554 113.66H59.1021C57.7351 113.66 56.623 112.551 56.623 111.188Z" fill="#FFCF99"/>
<path d="M114.486 124.284L122.159 137.89L123.04 153.191L129.149 153.578L127.052 135.449L114.469 118.018C113.383 119.967 113.39 122.34 114.486 124.284Z" fill="#D1E7C5"/>
<path d="M122.794 148.812L97.8906 149.151L97.8954 149.5L122.799 149.16L122.794 148.812Z" fill="#FFCF99"/>
<path d="M121.284 145.735L97.6719 145.919L97.6746 146.268L121.287 146.084L121.284 145.735Z" fill="#FFCF99"/>
<path d="M120.058 142.591L97.4717 143.031L97.4785 143.38L120.065 142.94L120.058 142.591Z" fill="#FFCF99"/>
<path d="M119.357 139.464L97.667 140.183L97.6786 140.531L119.369 139.813L119.357 139.464Z" fill="#FFCF99"/>
<path d="M118.308 136.679L97.4688 137.41L97.481 137.759L118.32 137.028L118.308 136.679Z" fill="#FFCF99"/>
<path d="M116.915 134.229H96.6182V134.578H116.915V134.229Z" fill="#FFCF99"/>
<path d="M115.865 131.783L96.1396 132.014L96.1437 132.362L115.87 132.132L115.865 131.783Z" fill="#FFCF99"/>
<path d="M114.813 129.345L95.6992 129.978L95.7108 130.326L114.825 129.693L114.813 129.345Z" fill="#FFCF99"/>
<path d="M114.117 126.917L95.2422 127.248L95.2483 127.597L114.123 127.266L114.117 126.917Z" fill="#FFCF99"/>
<path d="M112.716 124.502L94.6436 125.065L94.6545 125.414L112.727 124.851L112.716 124.502Z" fill="#FFCF99"/>
<path d="M112.021 122.376L94.1074 122.551L94.1108 122.899L112.024 122.725L112.021 122.376Z" fill="#FFCF99"/>
<path d="M92.7988 115.197V91.5548C92.7988 90.1913 93.9109 89.082 95.2779 89.082H106.748C108.114 89.082 109.226 90.1913 109.226 91.5548V115.197C109.226 116.561 108.114 117.67 106.748 117.67H95.2779C93.9109 117.67 92.7988 116.561 92.7988 115.197Z" fill="#F1F7EA"/>
<path d="M66.0806 149.743L45.7768 148.453L45.6133 148.442V132.769C45.6133 130.787 47.2302 129.174 49.2174 129.174H69.2724C71.2596 129.174 72.8762 130.787 72.8762 132.769V149.743H72.7014L66.0806 149.743Z" fill="#D1E7C5"/>
<path d="M94.1963 72.3154V54.2509C94.1963 52.8875 95.3084 51.7783 96.6754 51.7783H100.456C101.822 51.7783 102.934 52.8875 102.934 54.2509V72.3154C102.934 73.6788 101.822 74.788 100.456 74.788H96.6754C95.3084 74.788 94.1963 73.6788 94.1963 72.3154Z" fill="#FFCF99"/>
<path d="M98.0411 151.487L96.9925 136.147L93.8468 121.505L92.973 117.495C91.1774 116.277 88.7593 117.632 88.8678 119.795L88.9535 121.505L92.0992 136.147L93.1478 151.487" fill="#D1E7C5"/>
<path d="M34.0796 147.652L35.2687 125.589C35.2687 125.589 74.2739 117.524 74.2739 94.2752C74.2739 71.0268 10.5338 68.1801 4.11219 78.8554C4.04797 78.9621 3.98415 79.0689 3.92071 79.1756C-4.0109 92.5178 0.467196 109.84 13.9641 117.545C18.5793 120.179 24.082 122.434 30.512 123.692L30.0591 147.129" fill="#D1E7C5"/>
<path d="M8.80482 145.783L8.75977 146.479L326.785 166.964L326.83 166.268L8.80482 145.783Z" fill="#D1E7C5"/>
</g>
<defs>
<clipPath id="clip0_538_1579">
<rect width="349" height="167" fill="white"/>
</clipPath>
</defs>
</svg>
