<svg viewBox="0 0 36 43" fill="none" xmlns="http://www.w3.org/2000/svg">
<path d="M35 16.6503C35 27.4649 20.5687 39.8706 18.2989 41.755C18.1188 41.9044 17.8812 41.9044 17.7011 41.755C15.4313 39.8706 1 27.4649 1 16.6503C1 12.4996 2.79107 8.51886 5.97918 5.58386C9.1673 2.64886 13.4913 1 18 1C22.5087 1 26.8327 2.64886 30.0208 5.58386C33.2089 8.51886 35 12.4996 35 16.6503Z" fill="#074634" stroke="#074634" stroke-miterlimit="10"/>
<path d="M17.8166 22.7133C18.3688 22.7133 18.7732 22.5578 19.0299 22.2467C19.2866 21.9356 19.4149 21.5661 19.4149 21.1383V20.3217C19.4149 19.8161 19.2516 19.4583 18.9249 19.2483C18.5982 19.0306 18.2288 18.9217 17.8166 18.9217H16.9066V22.7133H17.8166ZM19.2516 14.8267C19.2516 14.36 19.1232 14.0372 18.8666 13.8583C18.6099 13.6717 18.2405 13.5783 17.7582 13.5783H16.9066V16.95H17.8516C18.3027 16.95 18.6488 16.775 18.8899 16.425C19.131 16.0672 19.2516 15.6317 19.2516 15.1183V14.8267ZM18.6099 25.105C18.0032 25.105 17.2177 25.0894 16.2532 25.0583C15.2888 25.0272 14.5966 25.0078 14.1766 25H13.0566V11.3267H15.0749C15.5649 11.3267 16.1249 11.3111 16.7549 11.28C17.3849 11.2411 17.8399 11.2217 18.1199 11.2217C19.0299 11.2217 19.796 11.2956 20.4182 11.4433C21.0482 11.5911 21.5421 11.8128 21.8999 12.1083C22.2577 12.4039 22.5105 12.7461 22.6582 13.135C22.8138 13.5239 22.8916 13.9867 22.8916 14.5233C22.8916 15.3478 22.701 16.0556 22.3199 16.6467C21.9388 17.2378 21.3866 17.6072 20.6632 17.755C22.4988 17.9183 23.4166 18.9956 23.4166 20.9867C23.4166 21.5856 23.3271 22.13 23.1482 22.62C22.9693 23.1022 22.6932 23.5339 22.3199 23.915C21.9543 24.2883 21.4566 24.58 20.8266 24.79C20.1966 25 19.4577 25.105 18.6099 25.105Z" fill="#F1F7EA"/>
</svg>
